 <svg version="1.0" xmlns="http://www.w3.org/2000/svg" width="700.000000pt" height="700.000000pt" viewBox="0 0 700.000000 700.000000" preserveAspectRatio="xMidYMid meet">
<metadata>
Created by potrace 1.12, written by Peter Selinger 2001-2015
</metadata>
<g transform="translate(0.000000,700.000000) scale(0.100000,-0.100000)" fill="#000000" stroke="none">
<path d="M4775 6789 c-44 -5 -98 -14 -120 -20 -22 -6 -60 -14 -85 -18 -25 -4
-51 -11 -59 -16 -8 -4 -31 -12 -50 -16 -53 -11 -116 -34 -216 -79 -88 -39
-118 -54 -195 -100 -241 -143 -422 -314 -606 -575 -48 -67 -165 -292 -179
-345 -4 -14 -11 -29 -15 -35 -4 -5 -11 -26 -15 -45 -4 -19 -11 -39 -15 -45 -8
-11 -23 -68 -45 -180 -8 -38 -19 -88 -25 -110 -15 -64 -13 -500 4 -565 8 -30
17 -75 21 -100 3 -25 10 -56 15 -70 5 -14 18 -59 30 -100 12 -41 28 -87 36
-102 8 -14 14 -32 14 -39 0 -16 99 -217 111 -224 5 -4 9 -14 9 -23 1 -9 14
-33 30 -52 17 -19 30 -38 30 -42 0 -19 144 -191 233 -281 82 -81 284 -247 301
-247 3 0 24 -12 48 -27 73 -47 82 -53 103 -62 19 -8 137 -62 180 -81 39 -18
201 -67 300 -90 28 -7 84 -16 125 -20 41 -4 119 -14 172 -21 81 -11 115 -11
195 0 54 7 132 17 173 21 72 7 111 15 230 47 140 38 179 53 345 135 106 53
115 57 185 102 192 124 437 369 540 541 13 22 26 42 29 45 20 17 122 229 154
315 37 104 43 125 92 330 21 87 31 423 17 545 -34 284 -112 516 -255 755 -147
245 -351 454 -602 617 -110 71 -348 182 -440 204 -11 3 -42 11 -70 19 -118 32
-144 38 -215 46 -115 13 -425 18 -515 8z m478 -400 c67 -12 130 -25 139 -30 9
-5 25 -9 35 -9 10 0 30 -6 44 -14 14 -7 39 -16 55 -20 31 -8 210 -94 256 -124
210 -134 386 -313 499 -507 81 -138 159 -327 159 -384 0 -12 5 -31 11 -43 16
-30 39 -220 39 -327 0 -112 -15 -248 -36 -312 -7 -26 -14 -54 -14 -64 0 -64
-135 -365 -202 -450 -4 -5 -28 -37 -52 -70 -123 -167 -331 -338 -521 -428 -44
-21 -88 -43 -97 -48 -10 -5 -23 -9 -29 -9 -6 0 -25 -7 -42 -15 -32 -14 -71
-25 -162 -45 -27 -6 -70 -16 -95 -21 -67 -16 -305 -22 -385 -10 -129 19 -183
29 -217 39 -18 6 -64 21 -103 33 -67 21 -240 101 -297 137 -205 131 -391 317
-500 501 -29 50 -98 188 -98 197 0 3 -6 20 -13 37 -119 282 -130 684 -26 987
47 138 128 302 186 378 16 20 37 50 47 66 33 53 240 250 316 301 98 66 98 66
227 130 61 30 120 55 130 55 11 0 23 4 29 9 5 6 27 14 49 20 22 6 58 15 80 20
177 46 396 53 588 20z"></path>
<path d="M4922 5722 c-40 -13 -91 -62 -112 -107 -18 -40 -20 -65 -20 -278 0
-205 -2 -236 -16 -241 -9 -3 -115 -6 -237 -6 -245 0 -276 -6 -330 -58 -41 -40
-71 -119 -62 -162 8 -37 33 -89 54 -114 41 -47 62 -51 331 -56 l255 -5 5 -250
c4 -219 7 -254 24 -285 27 -52 45 -69 94 -90 81 -36 163 -19 223 47 56 60 59
77 59 324 0 125 3 234 6 243 5 14 37 16 251 16 242 0 245 0 286 25 65 38 91
84 91 163 1 54 -4 75 -24 107 -52 86 -87 95 -365 95 -158 0 -224 3 -233 12 -9
9 -12 77 -13 242 0 217 -2 234 -22 275 -12 24 -39 57 -59 74 -30 24 -48 30
-100 33 -35 2 -73 0 -86 -4z"></path>
<path d="M2895 3523 c-33 -9 -81 -30 -107 -47 -71 -47 -2526 -2502 -2545
-2545 -57 -126 -56 -265 3 -381 23 -46 285 -313 346 -352 139 -90 296 -91 441
-2 65 40 2498 2476 2524 2527 53 103 55 115 51 218 -2 59 -9 104 -16 111 -7 7
-12 18 -12 24 0 50 -276 343 -378 403 -55 32 -161 62 -215 60 -18 -1 -59 -8
-92 -16z"></path>
</g>
</svg>