 <svg version="1.0" xmlns="http://www.w3.org/2000/svg" width="700.000000pt" height="700.000000pt" viewBox="0 0 700.000000 700.000000" preserveAspectRatio="xMidYMid meet">
<metadata>
Created by potrace 1.12, written by Peter Selinger 2001-2015
</metadata>
<g transform="translate(0.000000,700.000000) scale(0.100000,-0.100000)" fill="#000000" stroke="none">
<path d="M3432 6879 c-23 -4 -54 -17 -69 -29 -14 -11 -31 -20 -37 -20 -6 0
-39 -26 -73 -58 -34 -31 -78 -70 -98 -87 -77 -62 -2106 -2099 -2122 -2129 -9
-17 -26 -40 -38 -52 -12 -11 -25 -38 -29 -59 -7 -35 -4 -41 28 -74 l36 -36
559 -5 c308 -3 563 -9 568 -13 4 -5 10 -522 13 -1150 5 -1127 6 -1143 26
-1197 12 -30 24 -71 28 -91 3 -21 15 -48 25 -60 10 -13 23 -39 29 -57 19 -57
84 -131 195 -224 38 -32 73 -58 79 -58 5 0 23 -9 38 -20 16 -12 50 -27 75 -35
26 -7 56 -22 67 -32 19 -17 59 -18 762 -18 l741 0 49 28 c27 15 56 27 65 27 9
0 36 14 61 30 25 16 49 30 54 30 10 0 125 99 171 146 46 48 85 105 85 124 0 9
11 31 25 50 14 18 28 50 31 69 4 20 16 61 28 91 20 54 21 70 26 1198 4 1001 7
1144 20 1152 9 6 233 10 558 10 581 0 585 0 612 49 18 35 12 88 -15 118 -14
15 -44 51 -66 78 -36 45 -1418 1434 -1916 1926 -370 365 -437 409 -591 378z"></path>
<path d="M0 1285 l0 -586 25 -22 c19 -17 27 -38 35 -90 15 -96 83 -220 177
-323 47 -52 138 -123 179 -140 21 -9 46 -22 55 -30 9 -8 54 -21 100 -30 62
-12 90 -22 106 -40 l22 -24 2800 0 c2774 0 2800 0 2811 20 11 20 50 33 130 44
25 4 56 13 70 21 14 7 44 23 68 34 52 25 153 107 203 164 46 54 109 146 109
160 0 6 7 18 15 28 9 9 24 57 34 106 20 99 25 113 47 113 12 0 14 83 14 590
l0 590 -242 0 c-134 0 -249 -4 -256 -9 -11 -7 -14 -111 -15 -557 l-2 -549 -29
-55 c-37 -70 -93 -126 -159 -159 l-52 -26 -2740 0 -2740 0 -60 29 c-74 37
-130 91 -164 159 l-26 52 -2 549 c-2 429 -6 551 -15 558 -7 4 -122 8 -255 8
l-243 0 0 -585z"></path>
</g>
</svg>