 <svg version="1.0" xmlns="http://www.w3.org/2000/svg" width="700.000000pt" height="700.000000pt" viewBox="0 0 700.000000 700.000000" preserveAspectRatio="xMidYMid meet">
<metadata>
Created by potrace 1.12, written by Peter Selinger 2001-2015
</metadata>
<g transform="translate(0.000000,700.000000) scale(0.100000,-0.100000)" fill="#000000" stroke="none">
<path d="M2490 6930 c-110 -9 -239 -27 -317 -46 -34 -7 -70 -14 -81 -14 -11 0
-33 -7 -48 -15 -16 -8 -40 -15 -54 -15 -14 0 -56 -12 -95 -26 -38 -14 -85 -29
-104 -34 -18 -5 -38 -13 -44 -19 -6 -6 -19 -11 -29 -11 -10 0 -44 -13 -75 -29
-32 -16 -96 -48 -143 -71 -47 -23 -98 -50 -115 -60 -16 -11 -39 -24 -50 -30
-46 -23 -174 -111 -275 -189 -109 -84 -347 -322 -431 -431 -78 -101 -166 -229
-189 -275 -6 -11 -19 -33 -29 -50 -18 -27 -49 -89 -132 -259 -16 -32 -29 -66
-29 -75 0 -9 -5 -22 -11 -28 -6 -6 -14 -26 -19 -44 -5 -19 -20 -65 -34 -104
-14 -38 -26 -81 -26 -93 0 -13 -6 -38 -14 -55 -18 -44 -35 -126 -46 -224 -5
-45 -13 -99 -19 -120 -5 -21 -13 -110 -16 -198 -10 -255 23 -559 81 -765 9
-30 23 -80 31 -110 17 -58 36 -114 59 -168 8 -18 14 -37 14 -43 0 -5 23 -57
50 -114 28 -57 50 -106 50 -109 0 -9 152 -259 184 -303 51 -70 158 -206 201
-253 86 -97 316 -310 334 -310 3 0 19 -11 34 -25 26 -25 197 -144 227 -158 8
-4 42 -23 75 -42 33 -19 98 -53 145 -75 47 -23 97 -48 112 -56 14 -7 35 -14
45 -14 11 0 28 -7 39 -15 10 -8 27 -15 37 -15 11 0 31 -6 45 -14 40 -20 90
-36 157 -51 33 -8 87 -21 120 -30 33 -9 92 -21 130 -26 39 -6 95 -15 125 -22
74 -16 585 -16 660 0 30 6 87 16 125 21 39 6 99 18 135 27 36 9 90 23 120 30
64 16 123 35 200 65 30 12 67 25 82 30 46 14 239 110 321 158 43 26 98 58 121
72 60 35 176 122 176 132 0 4 9 8 21 8 22 0 249 -223 249 -245 0 -8 -6 -26
-14 -42 -54 -109 -49 -268 12 -393 38 -78 126 -171 744 -786 595 -592 648
-643 710 -672 137 -65 300 -65 436 0 57 27 93 59 237 203 144 143 176 181 203
237 64 135 64 300 0 435 -29 63 -77 113 -707 744 -714 713 -698 699 -834 744
-87 29 -277 13 -321 -26 -6 -5 -18 -9 -27 -9 -25 0 -249 225 -249 250 0 11 4
20 8 20 10 0 97 116 132 176 14 23 43 73 66 111 46 77 150 286 164 330 5 15
18 53 30 83 31 80 50 137 66 203 8 31 21 85 30 120 9 34 20 94 25 132 6 39 15
90 21 115 16 66 22 486 8 595 -6 50 -15 124 -20 165 -10 75 -15 98 -45 200 -9
30 -21 75 -25 100 -9 50 -26 101 -46 142 -8 14 -14 34 -14 45 0 10 -7 27 -15
37 -8 11 -15 28 -15 37 0 10 -11 39 -24 66 -13 26 -38 77 -55 113 -17 36 -46
92 -65 125 -20 33 -38 67 -42 75 -16 30 -123 186 -148 215 -14 17 -39 48 -54
69 -31 45 -110 134 -193 216 -101 101 -137 131 -294 253 -79 60 -344 227 -362
227 -4 0 -53 23 -110 50 -57 28 -108 50 -113 50 -5 0 -24 6 -42 14 -54 23
-110 42 -168 59 -30 8 -80 22 -110 30 -247 70 -577 99 -860 77z m427 -471 c15
-6 66 -15 113 -20 109 -11 269 -49 370 -89 30 -12 68 -25 83 -30 16 -5 66 -27
112 -50 47 -22 95 -45 107 -50 24 -10 32 -15 106 -62 24 -16 45 -28 48 -28 4
0 63 -43 169 -123 132 -99 322 -296 419 -432 90 -127 229 -379 257 -465 14
-44 39 -114 48 -135 5 -11 14 -40 20 -65 7 -25 21 -79 31 -120 23 -86 36 -182
51 -362 21 -267 -39 -651 -138 -885 -7 -17 -13 -35 -13 -39 0 -5 -13 -36 -29
-69 -16 -33 -39 -82 -52 -110 -12 -27 -32 -63 -43 -80 -12 -16 -25 -37 -31
-47 -138 -235 -324 -443 -550 -613 -60 -45 -123 -90 -140 -99 -16 -9 -43 -25
-60 -36 -16 -11 -39 -24 -50 -30 -11 -5 -27 -14 -35 -20 -58 -38 -306 -139
-395 -161 -22 -5 -49 -13 -60 -18 -56 -24 -229 -53 -420 -72 -106 -10 -320 -4
-395 11 -25 5 -76 14 -115 19 -64 9 -108 18 -235 52 -25 6 -54 16 -65 20 -11
5 -33 13 -50 19 -156 48 -393 171 -543 282 -88 65 -231 190 -293 255 -94 99
-248 292 -269 337 -3 6 -17 29 -31 51 -43 68 -151 286 -162 330 -3 11 -15 45
-27 75 -12 30 -24 64 -26 75 -3 11 -11 43 -19 70 -33 118 -45 177 -45 217 0
24 -7 70 -15 103 -18 74 -21 429 -4 472 6 15 15 66 20 113 10 105 50 272 75
322 8 14 14 34 14 45 0 10 7 27 15 37 8 11 15 28 15 39 0 10 6 31 14 45 7 15
31 63 52 107 217 446 579 806 1019 1015 39 18 82 39 97 46 14 8 34 14 45 14
10 0 27 7 37 15 11 8 28 15 39 15 10 0 31 6 45 14 15 7 50 19 77 26 28 7 77
19 110 27 33 8 96 18 140 23 44 4 91 13 105 18 34 15 421 15 457 1z"></path>
<path d="M1365 4560 c-3 -5 -6 -121 -6 -257 l-1 -248 1333 0 1334 0 0 255 0
255 -1327 3 c-841 1 -1329 -1 -1333 -8z"></path>
</g>
</svg>